<svg width="20" height="20" viewBox="0 0 20 20" fill="none" xmlns="http://www.w3.org/2000/svg">
<path d="M13.75 2.35413C12.3 2.35413 10.9083 3.02913 9.99999 4.09579C9.09166 3.02913 7.69999 2.35413 6.24999 2.35413C3.68332 2.35413 1.66666 4.37079 1.66666 6.93746C1.66666 10.0875 4.49999 12.6541 8.79166 16.5541L9.99999 17.6458L11.2083 16.5458C15.5 12.6541 18.3333 10.0875 18.3333 6.93746C18.3333 4.37079 16.3167 2.35413 13.75 2.35413ZM10.0833 15.3125L9.99999 15.3958L9.91666 15.3125C5.94999 11.7208 3.33332 9.34579 3.33332 6.93746C3.33332 5.27079 4.58332 4.02079 6.24999 4.02079C7.53332 4.02079 8.78332 4.84579 9.22499 5.98746H10.7833C11.2167 4.84579 12.4667 4.02079 13.75 4.02079C15.4167 4.02079 16.6667 5.27079 16.6667 6.93746C16.6667 9.34579 14.05 11.7208 10.0833 15.3125Z" fill="#2E303B"/>
</svg>
