<svg width="23" height="23" viewBox="0 0 23 23" fill="none" xmlns="http://www.w3.org/2000/svg">
<path d="M19.4063 9.66667H11.7521C11.0004 7.53083 8.96544 6 6.57294 6C3.53877 6 1.07294 8.46583 1.07294 11.5C1.07294 14.5342 3.53877 17 6.57294 17C8.96544 17 11.0004 15.4692 11.7521 13.3333H12.0729L13.9063 15.1667L15.7396 13.3333L17.5729 15.1667L21.2396 11.4633L19.4063 9.66667ZM6.57294 14.25C5.06044 14.25 3.82294 13.0125 3.82294 11.5C3.82294 9.9875 5.06044 8.75 6.57294 8.75C8.08544 8.75 9.32294 9.9875 9.32294 11.5C9.32294 13.0125 8.08544 14.25 6.57294 14.25Z" fill="#909090"/>
</svg>
