<svg width="23" height="23" viewBox="0 0 23 23" fill="none" xmlns="http://www.w3.org/2000/svg">
<path d="M11.1563 5.90833C12.2196 5.90833 13.0813 6.77 13.0813 7.83333C13.0813 8.89666 12.2196 9.75833 11.1563 9.75833C10.0929 9.75833 9.23127 8.89666 9.23127 7.83333C9.23127 6.77 10.0929 5.90833 11.1563 5.90833ZM11.1563 14.1583C13.8788 14.1583 16.7479 15.4967 16.7479 16.0833V17.0917H5.5646V16.0833C5.5646 15.4967 8.43377 14.1583 11.1563 14.1583ZM11.1563 4.16666C9.13044 4.16666 7.4896 5.8075 7.4896 7.83333C7.4896 9.85916 9.13044 11.5 11.1563 11.5C13.1821 11.5 14.8229 9.85916 14.8229 7.83333C14.8229 5.8075 13.1821 4.16666 11.1563 4.16666ZM11.1563 12.4167C8.70877 12.4167 3.82294 13.645 3.82294 16.0833V18.8333H18.4896V16.0833C18.4896 13.645 13.6038 12.4167 11.1563 12.4167Z" fill="#909090"/>
</svg>
