<svg width="21" height="21" viewBox="0 0 21 21" fill="none" xmlns="http://www.w3.org/2000/svg">
<path d="M10.1562 5.41671C11.1229 5.41671 11.9062 6.20004 11.9062 7.16671C11.9062 8.13337 11.1229 8.91671 10.1562 8.91671C9.18956 8.91671 8.40623 8.13337 8.40623 7.16671C8.40623 6.20004 9.18956 5.41671 10.1562 5.41671ZM10.1562 12.9167C12.6312 12.9167 15.2396 14.1334 15.2396 14.6667V15.5834H5.0729V14.6667C5.0729 14.1334 7.68123 12.9167 10.1562 12.9167ZM10.1562 3.83337C8.31456 3.83337 6.8229 5.32504 6.8229 7.16671C6.8229 9.00837 8.31456 10.5 10.1562 10.5C11.9979 10.5 13.4896 9.00837 13.4896 7.16671C13.4896 5.32504 11.9979 3.83337 10.1562 3.83337ZM10.1562 11.3334C7.93123 11.3334 3.48956 12.45 3.48956 14.6667V17.1667H16.8229V14.6667C16.8229 12.45 12.3812 11.3334 10.1562 11.3334Z" fill="#CB1B1B"/>
</svg>
