<svg width="23" height="23" viewBox="0 0 23 23" fill="none" xmlns="http://www.w3.org/2000/svg">
<path d="M16.1612 5.08333C16.1062 5.89917 15.9688 6.69667 15.7488 7.4575L16.8487 8.5575C17.2246 7.4575 17.4629 6.29333 17.5454 5.08333H16.1612ZM7.12292 16.1017C6.34375 16.3217 5.54625 16.4592 4.73958 16.5142V17.88C5.94958 17.7975 7.11375 17.5592 8.22292 17.1925L7.12292 16.1017ZM15.2813 3.25H18.4896C18.9938 3.25 19.4063 3.6625 19.4063 4.16667C19.4063 12.7742 12.4304 19.75 3.82292 19.75C3.31875 19.75 2.90625 19.3375 2.90625 18.8333V15.6342C2.90625 15.13 3.31875 14.7175 3.82292 14.7175C4.95958 14.7175 6.06875 14.5342 7.09542 14.195C7.18708 14.1583 7.28792 14.1492 7.37958 14.1492C7.61792 14.1492 7.84708 14.2408 8.03042 14.415L10.0471 16.4317C12.6413 15.1025 14.7679 12.985 16.0879 10.3908L14.0713 8.37417C13.8146 8.1175 13.7413 7.76 13.8421 7.43917C14.1813 6.4125 14.3646 5.3125 14.3646 4.16667C14.3646 3.6625 14.7771 3.25 15.2813 3.25Z" fill="#909090"/>
</svg>
