<svg width="20" height="20" viewBox="0 0 20 20" fill="none" xmlns="http://www.w3.org/2000/svg">
<path d="M9.99998 4.97921C13.1583 4.97921 15.975 6.75421 17.35 9.56254C16.8583 10.5792 16.1666 11.4542 15.3416 12.1625L16.5166 13.3375C17.675 12.3125 18.5916 11.0292 19.1666 9.56254C17.725 5.90421 14.1666 3.31254 9.99998 3.31254C8.94165 3.31254 7.92498 3.47921 6.96665 3.78754L8.34165 5.16254C8.88331 5.05421 9.43331 4.97921 9.99998 4.97921ZM9.10831 5.92921L10.8333 7.65421C11.3083 7.86254 11.6916 8.24587 11.9 8.72087L13.625 10.4459C13.6916 10.1625 13.7416 9.86254 13.7416 9.55421C13.75 7.48754 12.0666 5.81254 9.99998 5.81254C9.69165 5.81254 9.39998 5.85421 9.10831 5.92921ZM1.67498 3.20421L3.90831 5.43754C2.54998 6.50421 1.47498 7.92087 0.833313 9.56254C2.27498 13.2209 5.83331 15.8125 9.99998 15.8125C11.2666 15.8125 12.4833 15.5709 13.6 15.1292L16.45 17.9792L17.625 16.8042L2.84998 2.02087L1.67498 3.20421ZM7.92498 9.45421L10.1 11.6292C10.0666 11.6375 10.0333 11.6459 9.99998 11.6459C8.84998 11.6459 7.91665 10.7125 7.91665 9.56254C7.91665 9.52087 7.92498 9.49587 7.92498 9.45421ZM5.09165 6.62087L6.54998 8.07921C6.35831 8.53754 6.24998 9.03754 6.24998 9.56254C6.24998 11.6292 7.93331 13.3125 9.99998 13.3125C10.525 13.3125 11.025 13.2042 11.475 13.0125L12.2916 13.8292C11.5583 14.0292 10.7916 14.1459 9.99998 14.1459C6.84165 14.1459 4.02498 12.3709 2.64998 9.56254C3.23331 8.37087 4.08331 7.38754 5.09165 6.62087Z" fill="#505050"/>
</svg>
